<svg width="60" height="61" viewBox="0 0 60 61" fill="none" xmlns="http://www.w3.org/2000/svg">
<path d="M24.4185 0.756592C26.5416 0.756592 27.75 2.86823 27.75 4.99121V17.989H25.0638C24.1737 15.7901 22.018 14.239 19.5 14.239C16.1863 14.239 13.5 16.9253 13.5 20.239C13.5 23.5527 16.1863 26.239 19.5 26.239C22.018 26.239 24.1737 24.6879 25.0638 22.489H27.75V55.1827C27.75 56.971 26.994 58.7497 25.4019 59.5648C24.0402 60.262 22.4716 60.7273 20.7239 60.7273C16.1918 60.7273 12.8215 58.4347 10.6531 55.7218C9.06081 53.7298 8.01417 51.3883 7.5957 49.3105C6.3876 48.9595 5.02317 48.3022 3.78696 47.2417C1.65642 45.4141 0 42.4714 0 38.1379C0 35.872 0.16203 33.8986 0.56811 32.239H13.1994C15.2338 32.239 16.9178 33.739 17.2059 35.6932C15.0304 36.5941 13.5 38.7379 13.5 41.239C13.5 44.5528 16.1863 47.239 19.5 47.239C22.8137 47.239 25.5 44.5528 25.5 41.239C25.5 38.7121 23.9381 36.5503 21.727 35.6659C21.4079 31.2349 17.7119 27.739 13.1994 27.739H3.11832C3.50985 27.4153 3.93984 27.1423 4.40757 26.9215C4.473 26.8909 4.5387 26.8612 4.60467 26.8327C4.28817 25.7314 4.12302 24.5813 4.07229 23.4528C3.9732 21.2484 4.30134 18.952 4.95705 16.9092C5.60301 14.8967 6.62871 12.9414 8.07105 11.5879C8.97675 10.738 10.0969 10.0955 11.3574 9.88715C11.9536 7.36757 13.4749 5.28461 15.416 3.77354C17.911 1.83131 21.1749 0.756592 24.4185 0.756592ZM32.25 45.739H37.2C41.922 45.739 45.75 41.911 45.75 37.189V31.8028C47.949 30.9127 49.5 28.7569 49.5 26.239C49.5 22.9253 46.8138 20.239 43.5 20.239C40.1862 20.239 37.5 22.9253 37.5 26.239C37.5 28.7569 39.051 30.9127 41.25 31.8028V37.189C41.25 39.4258 39.4368 41.239 37.2 41.239H32.25V20.2601C32.25 20.2531 32.25 20.246 32.25 20.239C32.25 20.2319 32.25 20.2249 32.25 20.2179V4.99121C32.25 2.86823 33.4584 0.756592 35.5815 0.756592C38.8251 0.756592 42.0891 1.83131 44.5839 3.77354C46.5249 5.28461 48.0465 7.36757 48.6426 9.88715C49.9032 10.0955 51.0234 10.738 51.9291 11.5879C53.3712 12.9414 54.3969 14.8967 55.0431 16.9092C55.6986 18.952 56.0268 21.2484 55.9278 23.4528C55.8771 24.5813 55.7118 25.7314 55.3953 26.8327C55.4613 26.8612 55.527 26.8909 55.5924 26.9215C56.703 27.4453 57.6006 28.2652 58.2759 29.3533C59.5512 31.4074 60 34.3672 60 38.1379C60 42.4714 58.3437 45.4141 56.2131 47.2417C54.9768 48.3022 53.6124 48.9595 52.4043 49.3105C51.9858 51.3883 50.9391 53.7298 49.347 55.7218C47.1786 58.4347 43.8081 60.7273 39.276 60.7273C37.5285 60.7273 35.9598 60.262 34.5981 59.5648C33.006 58.7497 32.25 56.971 32.25 55.1827V45.739ZM18 20.239C18 19.4106 18.6716 18.739 19.5 18.739C20.3284 18.739 21 19.4106 21 20.239C21 21.0674 20.3284 21.739 19.5 21.739C18.6716 21.739 18 21.0674 18 20.239ZM19.5 39.739C18.6716 39.739 18 40.4107 18 41.239C18 42.0673 18.6716 42.739 19.5 42.739C20.3284 42.739 21 42.0673 21 41.239C21 40.4107 20.3284 39.739 19.5 39.739ZM42 26.239C42 27.0673 42.6717 27.739 43.5 27.739C44.3283 27.739 45 27.0673 45 26.239C45 25.4107 44.3283 24.739 43.5 24.739C42.6717 24.739 42 25.4107 42 26.239Z" fill="#212121"/>
</svg>
