<svg width="60" height="60" viewBox="0 0 60 60" fill="none" xmlns="http://www.w3.org/2000/svg">
<path d="M27.5823 0C25.8513 0 24.3456 1.18287 23.9364 2.86554C21.8637 11.3911 19.3331 20.7124 16.7814 30H32.25C33.4926 30 34.5 31.0074 34.5 32.25C34.5 33.4926 33.4926 34.5 32.25 34.5H15.5436C14.9903 36.5109 14.4392 38.5137 13.895 40.5H35.25C36.4926 40.5 37.5 41.5074 37.5 42.75C37.5 43.9926 36.4926 45 35.25 45H12.6671C11.691 48.5949 10.7494 52.1124 9.87009 55.5H2.25C1.00737 55.5 0 56.5074 0 57.75C0 58.9926 1.00737 60 2.25 60H57.75C58.9926 60 60 58.9926 60 57.75C60 56.5074 58.9926 55.5 57.75 55.5H50.1285L36.0711 2.78376C35.6331 1.14219 34.1466 0 32.4477 0H27.5823Z" fill="black"/>
</svg>
