<svg width="60" height="61" viewBox="0 0 60 61" fill="none" xmlns="http://www.w3.org/2000/svg">
<path d="M60 30.443C60 47.0114 46.5684 60.443 30 60.443C13.4314 60.443 0 47.0114 0 30.443C0 13.8744 13.4314 0.442993 30 0.442993C46.5684 0.442993 60 13.8744 60 30.443ZM37.5 17.5073C37.5 14.2166 33.2109 12.9531 31.4271 15.7183L18.9563 35.048C17.7328 36.9443 19.0942 39.443 21.3511 39.443H33V43.193C33 44.4356 34.0074 45.443 35.25 45.443C36.4926 45.443 37.5 44.4356 37.5 43.193V39.443H39.75C40.9926 39.443 42 38.4356 42 37.193C42 35.9504 40.9926 34.943 39.75 34.943H37.5V17.5073ZM33 21.5808V34.943H24.3792L33 21.5808Z" fill="#212121"/>
</svg>
