<svg width="60" height="61" viewBox="0 0 60 61" fill="none" xmlns="http://www.w3.org/2000/svg">
<path d="M60 30.443C60 47.0114 46.5684 60.443 30 60.443C13.4314 60.443 0 47.0114 0 30.443C0 13.8744 13.4314 0.442993 30 0.442993C46.5684 0.442993 60 13.8744 60 30.443ZM25.0539 21.2958C25.0629 21.2844 25.0818 21.2608 25.1103 21.2268C25.1676 21.1584 25.2624 21.0492 25.3932 20.9125C25.6566 20.6371 26.0544 20.2619 26.5692 19.8869C27.6078 19.1306 29.0259 18.443 30.7485 18.443C33.6477 18.443 35.9979 20.7933 35.9985 23.6934C35.9988 25.2959 35.4153 26.2802 34.416 27.1631C33.4569 28.0103 32.2377 28.67 30.696 29.5046C30.3672 29.6822 30.024 29.8682 29.6655 30.0653C27.765 31.1105 25.5555 32.4305 23.8555 34.4987C22.0932 36.6428 21 39.4319 21 43.193C21 44.4356 22.0074 45.443 23.25 45.443H38.25C39.4926 45.443 40.5 44.4356 40.5 43.193C40.5 41.9504 39.4926 40.943 38.25 40.943H25.6962C25.992 39.3824 26.5962 38.2514 27.3321 37.3559C28.4445 36.0023 29.9847 35.0255 31.8342 34.0082C32.1084 33.8573 32.3952 33.7031 32.6907 33.5441C34.236 32.7131 36.0111 31.7582 37.3953 30.5354C39.2079 28.934 40.4991 26.7776 40.4985 23.6926C40.4976 18.3085 36.1335 13.943 30.7485 13.943C27.7851 13.943 25.4565 15.1304 23.9204 16.2491C23.148 16.8116 22.551 17.3739 22.1417 17.8016C21.9362 18.0165 21.7753 18.2002 21.6607 18.337C21.5917 18.4193 21.524 18.5027 21.4592 18.5884L21.4567 18.5918L21.4544 18.5948C20.7098 19.5896 20.9126 20.9997 21.9075 21.7443C22.8987 22.4862 24.3021 22.2875 25.0488 21.3021L25.0539 21.2958Z" fill="#212121"/>
</svg>
