<svg width="60" height="53" viewBox="0 0 60 53" fill="none" xmlns="http://www.w3.org/2000/svg">
<path d="M33.3026 2.80896C31.9521 0.0724549 28.0499 0.0724822 26.6993 2.80896L20.2685 15.8391L5.88897 17.9285C2.86908 18.3673 1.66327 22.0786 3.84846 24.2086L14.2536 34.351L11.7973 48.6726C11.2815 51.6803 14.4383 53.9739 17.1394 52.5538L30.001 45.7921L42.8625 52.5538C45.5635 53.9739 48.7203 51.6803 48.2043 48.6726L45.7482 34.351L56.1532 24.2086C58.3386 22.0786 57.1326 18.3673 54.1127 17.9285L39.7332 15.8391L33.3026 2.80896ZM0.448304 4.66042C-0.257405 5.54252 -0.114384 6.82971 0.767748 7.53541L7.5859 12.9899C8.46801 13.6956 9.75519 13.5526 10.4609 12.6705C11.1666 11.7884 11.0236 10.5012 10.1415 9.7955L3.3233 4.34097C2.44117 3.63527 1.15398 3.77828 0.448304 4.66042ZM59.5517 44.0341C60.2575 43.1518 60.1143 41.8646 59.2323 41.159L52.4141 35.7045C51.5319 34.9987 50.2449 35.1419 49.5391 36.0239C48.8333 36.9061 48.9764 38.1931 49.8584 38.8989L56.6766 44.3535C57.5589 45.059 58.8458 44.9161 59.5517 44.0341ZM0.767748 41.159C-0.114384 41.8646 -0.257405 43.1518 0.448304 44.0341C1.15398 44.9161 2.44117 45.059 3.3233 44.3535L10.1415 38.8989C11.0236 38.1931 11.1666 36.9061 10.4609 36.0239C9.75519 35.1419 8.46801 34.9987 7.5859 35.7045L0.767748 41.159ZM59.5517 4.66042C60.2575 5.54252 60.1143 6.82971 59.2323 7.53541L52.4141 12.9899C51.5319 13.6956 50.2449 13.5526 49.5391 12.6705C48.8333 11.7884 48.9764 10.5012 49.8584 9.7955L56.6766 4.34097C57.5589 3.63527 58.8458 3.77828 59.5517 4.66042Z" fill="black"/>
</svg>
