<svg width="60" height="45" viewBox="0 0 60 45" fill="none" xmlns="http://www.w3.org/2000/svg">
<path d="M0 5.25C0 2.3505 2.3505 0 5.25 0H45.75C48.6495 0 51 2.3505 51 5.25V30.75C51 33.6495 48.6495 36 45.75 36H5.25C2.3505 36 0 33.6495 0 30.75V5.25ZM9 3.75V6.75C9 7.99263 7.99263 9 6.75 9H3.75V13.5H6.75C10.4779 13.5 13.5 10.4779 13.5 6.75V3.75H9ZM25.5 25.5C29.2278 25.5 32.25 22.4778 32.25 18.75C32.25 15.0222 29.2278 12 25.5 12C21.7721 12 18.75 15.0222 18.75 18.75C18.75 22.4778 21.7721 25.5 25.5 25.5ZM3.75 27H6.75C7.99263 27 9 28.0074 9 29.25V32.25H13.5V29.25C13.5 25.5222 10.4779 22.5 6.75 22.5H3.75V27ZM42 29.25C42 28.0074 43.0074 27 44.25 27H47.25V22.5H44.25C40.5222 22.5 37.5 25.5222 37.5 29.25V32.25H42V29.25ZM42 6.75V3.75H37.5V6.75C37.5 10.4779 40.5222 13.5 44.25 13.5H47.25V9H44.25C43.0074 9 42 7.99263 42 6.75ZM7.20405 40.5C8.76018 43.1901 11.6687 45 15 45H45.75C53.6202 45 60 38.6202 60 30.75V15C60 11.6687 58.1901 8.76018 55.5 7.20405V30.75C55.5 36.1347 51.1347 40.5 45.75 40.5H7.20405Z" fill="#212121"/>
</svg>
