<svg width="620" height="613" viewBox="0 0 620 613" fill="none" xmlns="http://www.w3.org/2000/svg">
<path d="M180.147 583.063C196.12 590.376 213.598 596.557 226.738 600.355C280.562 615.938 339.61 615.645 394.08 600.895C491.936 574.404 568.551 502.068 602.276 406.031C615.496 368.393 620.454 330.056 618.639 290.275C615.487 221.109 585.843 153.962 540.023 102.742C490.121 46.9628 423.45 12.3266 349.137 3.22484C263.119 -7.31123 170.372 19.9055 105.454 77.8274C51.3197 126.125 16.2397 190.192 4.57879 261.784C-4.21335 315.801 3.48088 371.66 24.5094 422.029C54.1087 492.913 110.191 551.057 180.147 583.063Z" stroke="#819EA5" stroke-width="2"/>
<path d="M32.0885 289.213C28.9541 351.624 47.4416 413.494 84.7971 463.846C94.0172 476.271 103.583 487.666 113.493 498.031C138.843 524.539 169.726 545.532 203.912 559.512C220.124 566.143 235.698 571.412 253.291 573.829C260.675 574.838 268.051 575.865 275.417 576.91C275.571 576.933 275.66 576.868 275.683 576.715L275.719 576.502C275.724 576.491 275.721 576.485 275.71 576.485C260.454 573.306 247.226 567.445 232.324 560.84C230.684 560.114 229.178 559.373 227.809 558.618C227.608 558.509 227.451 558.333 227.367 558.119C227.283 557.905 227.276 557.668 227.348 557.449C244.154 506.575 282.04 466.591 331.544 446.377C355.326 436.665 381.773 429.166 401.863 421.994C447.55 405.676 490.325 378.229 520.101 339.512C539.267 314.585 552.324 286.229 559.272 254.444C560.612 248.323 561.53 242.488 562.025 236.94C562.167 235.405 562.53 235.352 563.114 236.78C577.069 270.699 578.432 309.825 575.298 345.833C573.433 367.289 569.162 391.191 562.486 417.54C561.707 420.628 560.656 423.853 559.334 427.218H559.343C564.717 415.734 570.401 403.773 574.333 392.183C595.503 329.764 592.74 261.031 565.886 200.196C536.03 132.571 483.551 79.3767 414.799 51.797" stroke="#819EA5" stroke-width="2"/>
<path d="M414.799 51.7971C414.126 51.4665 413.474 51.1803 412.842 50.9382C393.641 43.5778 373.872 38.3599 353.537 35.2847C308.358 28.4377 264.117 32.1061 220.814 46.29C145.891 70.8328 85.7002 126.887 54.0733 198.629C49.602 208.767 45.8921 219.56 42.5718 230.291C38.6052 243.111 35.7541 256.176 34.0187 269.487C32.9621 277.561 32.3187 284.137 32.0885 289.213" stroke="#1B7EA1" stroke-width="2"/>
<path d="M414.799 51.797L414.463 52.0006C414.185 52.16 414.129 52.3755 414.294 52.647C414.944 53.7035 415.44 55.3739 415.782 57.6582C416.927 65.2548 414.935 71.3817 409.805 76.0388C402.085 83.0422 390.096 86.0171 379.675 88.5227C370.827 90.6536 361.975 92.7608 353.121 94.8444C331.594 99.9206 311.498 108.226 292.834 119.759C259.383 140.433 236.114 173.635 226.1 211.494C224.016 219.368 221.564 230.137 218.742 243.802C215.744 258.298 210.712 273.123 203.646 288.274C201.987 291.822 200.314 294.779 198.626 297.146C198.437 297.412 198.502 297.559 198.821 297.589C199.133 297.618 199.488 297.515 199.883 297.279" stroke="#8AD8F7" stroke-width="2"/>
<path d="M199.883 297.279C200.296 297.438 200.559 297.603 200.671 297.775C200.801 297.969 200.981 298.046 201.211 298.005C216.7 295.325 230.518 294 242.666 294.029C245.724 294.035 252.586 294.269 263.252 294.729C266.67 294.879 269.733 293.658 273.629 294.631C273.782 294.673 273.895 294.761 273.965 294.897C274.013 294.98 274.069 295.051 274.134 295.11C274.222 295.198 274.361 295.248 274.55 295.26C275.848 295.331 277.118 295.523 278.357 295.836" stroke="#2AB490" stroke-width="2"/>
<path d="M278.357 295.836C268.305 296.691 258.406 298.143 248.66 300.192C229.084 304.318 209.95 308.55 191.728 316.412C180.637 321.187 170.198 327.022 160.411 333.916C159.715 334.4 159.585 334.279 160.022 333.553C161.651 330.799 162.952 327.594 164.44 325C176.641 303.822 188.638 283.67 194.659 259.668C196.253 253.328 197.203 249.146 197.51 247.122C199.892 231.681 202.079 216.293 205.806 201.091C211.358 178.434 221.319 156.264 236.123 138.113C236.125 138.111 236.127 138.108 236.127 138.104C236.127 138.101 236.125 138.098 236.123 138.095C236.121 138.093 236.117 138.092 236.114 138.092C236.111 138.092 236.108 138.093 236.105 138.095C233.939 139.819 231.938 141.717 230.102 143.788C223.47 151.27 216.786 159.114 211.482 167.207C202.586 180.765 195.636 195.309 190.63 210.839C188.128 218.606 185.749 226.416 183.494 234.266C175.856 260.822 164.216 285.477 148.573 308.231C139.099 322.013 131.036 334.53 124.384 345.78C106.782 375.573 93.3679 410.493 89.3304 445.173C89.3127 445.362 89.2596 445.483 89.1711 445.536C89.0775 445.594 88.9652 445.613 88.8568 445.59C88.7484 445.567 88.6519 445.504 88.5867 445.412C84.4784 439.755 80.3347 434.071 76.9612 428.032C54.0822 387.03 41.0135 339.361 41.9343 292.179C41.9402 291.825 41.769 291.627 41.4208 291.586C38.1152 291.19 35.0045 290.399 32.0885 289.213" stroke="#8AD8F7" stroke-width="2"/>
<path d="M278.357 295.836C289.029 295.552 299.046 294.357 308.408 292.25C361.303 280.359 400.934 235.461 417.818 185.641C428.311 154.696 431.958 122.442 428.107 89.842C428.094 89.725 428.051 89.6136 427.982 89.5188C427.912 89.424 427.818 89.3492 427.71 89.3017C427.602 89.2543 427.482 89.2358 427.364 89.2483C427.246 89.2608 427.132 89.3037 427.035 89.3727C414.48 98.4656 398.711 103.061 384.545 106.301C349.217 114.385 314.278 124.106 286.211 148.118C259.746 170.757 242.241 203.455 240.267 238.941C240.249 239.265 240.364 239.322 240.612 239.109C253.722 227.983 267.865 218.37 283.041 210.272C300.377 201.029 318.457 193.202 336.192 184.738C346.791 179.673 358.416 173.962 366.916 165.835C367.689 165.097 367.831 165.2 367.341 166.144C357.92 184.313 344.179 198.833 326.382 210.449C310.852 220.587 293.719 228.856 278.977 237.002C261.581 246.611 245.266 257.797 230.031 270.558C223.869 275.723 215.118 283.727 203.779 294.57C202.947 295.366 201.648 296.269 199.883 297.279" stroke="#90D494" stroke-width="2"/>
<path d="M194.951 541.769C199.511 523.734 207.896 506.194 218.22 490.744C224.459 481.4 230.12 473.848 235.202 468.087C258.063 442.163 289.495 421.374 322.451 409.696C332.32 406.196 345.557 402.155 362.161 397.575C397.1 387.942 429.692 372.2 457.485 349.145C468.907 339.671 478.566 328.922 487.642 317.014C522.837 270.797 533.524 210.909 512.079 156.379C502.582 132.237 487.728 111.873 467.517 95.2871C467.453 95.2357 467.375 95.2039 467.293 95.1955C467.212 95.1872 467.129 95.2027 467.056 95.2402C466.983 95.2776 466.923 95.3354 466.882 95.4066C466.841 95.4778 466.821 95.5593 466.826 95.6412C467.086 100.34 467.112 105.127 466.906 110.002C465.799 136.511 460.3 162.691 451.066 187.5C430.365 243.111 386.253 287.3 332.535 310.984C314.854 318.785 295.64 323.645 276.524 326.372C271.654 327.069 261.549 328.615 246.208 331.012C218.007 335.421 192.879 344 170.478 361.097C142.854 382.178 127.084 414.858 122.409 448.786C121.146 457.97 120.597 468.072 120.763 479.092C120.816 482.545 120.603 484.626 122.976 487.353C136.694 503.16 152.339 516.774 169.912 528.196C179.448 534.394 186.026 537.687 194.553 541.946C194.59 541.964 194.631 541.974 194.673 541.975C194.714 541.976 194.756 541.968 194.794 541.951C194.832 541.934 194.865 541.909 194.893 541.877C194.92 541.846 194.94 541.809 194.951 541.769Z" stroke="#90D494" stroke-width="2"/>
<path d="M180.147 583.063C110.191 551.057 54.1087 492.913 24.5094 422.029C3.48088 371.66 -4.21335 315.801 4.57879 261.784C16.2397 190.191 51.3197 126.125 105.454 77.8274C170.372 19.9055 263.119 -7.31123 349.137 3.22484C423.45 12.3266 490.121 46.9628 540.023 102.742C585.843 153.962 615.487 221.109 618.639 290.275C620.454 330.056 615.496 368.393 602.276 406.031C568.551 502.068 491.936 574.404 394.081 600.895C339.61 615.645 280.562 615.938 226.738 600.355C213.598 596.557 196.12 590.377 180.147 583.063ZM32.0885 289.213C28.9542 351.624 47.4416 413.494 84.7971 463.846C94.0172 476.271 103.583 487.666 113.493 498.031C138.843 524.539 169.726 545.532 203.912 559.512C220.124 566.144 235.698 571.412 253.291 573.829C260.675 574.838 268.051 575.865 275.418 576.91C275.571 576.933 275.66 576.868 275.683 576.715L275.719 576.503C275.724 576.491 275.722 576.485 275.71 576.485C260.454 573.306 247.226 567.445 232.325 560.84C230.684 560.114 229.178 559.373 227.809 558.618C227.608 558.509 227.451 558.333 227.367 558.119C227.283 557.905 227.276 557.668 227.349 557.449C244.154 506.575 282.04 466.591 331.544 446.378C355.326 436.665 381.773 429.166 401.863 421.994C447.551 405.676 490.325 378.229 520.101 339.512C539.267 314.585 552.324 286.229 559.272 254.444C560.612 248.323 561.53 242.488 562.025 236.94C562.167 235.405 562.53 235.352 563.115 236.78C577.069 270.7 578.432 309.825 575.298 345.833C573.433 367.289 569.162 391.191 562.486 417.541C561.707 420.628 560.656 423.853 559.334 427.218H559.343C564.717 415.734 570.401 403.773 574.333 392.183C595.503 329.764 592.74 261.031 565.886 200.196C536.03 132.571 483.551 79.3768 414.799 51.797C414.126 51.4665 413.474 51.1802 412.842 50.9382C393.641 43.5777 373.872 38.3599 353.537 35.2846C308.358 28.4377 264.117 32.1061 220.814 46.29C145.891 70.8328 85.7003 126.887 54.0733 198.629C49.602 208.767 45.8921 219.56 42.5718 230.291C38.6052 243.111 35.7542 256.176 34.0187 269.487C32.9622 277.561 32.3188 284.137 32.0885 289.213Z" fill="#11434F"/>
<path d="M414.799 51.7971L414.463 52.0007C414.185 52.1601 414.129 52.3755 414.294 52.647C414.944 53.7036 415.44 55.374 415.782 57.6583C416.927 65.2549 414.935 71.3818 409.805 76.0389C402.085 83.0423 390.096 86.0172 379.675 88.5228C370.827 90.6537 361.975 92.7609 353.121 94.8445C331.594 99.9207 311.498 108.226 292.834 119.759C259.383 140.433 236.114 173.635 226.1 211.494C224.016 219.368 221.564 230.137 218.742 243.802C215.744 258.298 210.712 273.123 203.646 288.274C201.987 291.822 200.314 294.779 198.626 297.146C198.437 297.412 198.502 297.559 198.821 297.589C199.133 297.618 199.488 297.515 199.883 297.279C200.296 297.438 200.559 297.603 200.671 297.775C200.801 297.969 200.981 298.046 201.211 298.005C216.7 295.325 230.518 294 242.666 294.029C245.724 294.035 252.586 294.269 263.252 294.729C266.67 294.879 269.733 293.658 273.629 294.632C273.782 294.673 273.895 294.761 273.965 294.897C274.013 294.98 274.069 295.051 274.134 295.11C274.222 295.198 274.361 295.248 274.55 295.26C275.848 295.331 277.118 295.523 278.357 295.836C268.305 296.692 258.406 298.144 248.66 300.192C229.084 304.318 209.95 308.55 191.728 316.412C180.637 321.187 170.198 327.022 160.411 333.916C159.715 334.4 159.585 334.279 160.022 333.553C161.651 330.799 162.952 327.594 164.44 325C176.641 303.822 188.638 283.67 194.659 259.668C196.253 253.328 197.203 249.146 197.51 247.122C199.892 231.681 202.079 216.293 205.806 201.091C211.358 178.434 221.319 156.264 236.123 138.113C236.125 138.111 236.127 138.108 236.127 138.104C236.127 138.101 236.125 138.098 236.123 138.096C236.121 138.093 236.117 138.092 236.114 138.092C236.111 138.092 236.108 138.093 236.105 138.096C233.939 139.819 231.938 141.717 230.102 143.789C223.47 151.27 216.786 159.115 211.482 167.207C202.586 180.765 195.636 195.309 190.63 210.839C188.128 218.606 185.749 226.416 183.494 234.266C175.856 260.822 164.216 285.477 148.573 308.231C139.099 322.014 131.036 334.53 124.384 345.78C106.782 375.573 93.3679 410.493 89.3304 445.173C89.3127 445.362 89.2596 445.483 89.1711 445.536C89.0775 445.594 88.9652 445.613 88.8568 445.59C88.7484 445.567 88.6519 445.504 88.5867 445.413C84.4784 439.755 80.3347 434.071 76.9612 428.032C54.0822 387.03 41.0135 339.361 41.9343 292.179C41.9402 291.825 41.769 291.627 41.4208 291.586C38.1152 291.19 35.0045 290.399 32.0885 289.213C32.3187 284.137 32.9621 277.561 34.0187 269.487C35.7541 256.176 38.6052 243.111 42.5718 230.291C45.8921 219.56 49.602 208.767 54.0733 198.629C85.7002 126.887 145.891 70.8328 220.814 46.29C264.117 32.1061 308.358 28.4377 353.537 35.2847C373.872 38.3599 393.641 43.5778 412.842 50.9382C413.474 51.1803 414.126 51.4665 414.799 51.7971Z" fill="#24B8F3"/>
<path d="M414.799 51.7972C483.551 79.377 536.03 132.571 565.886 200.197C592.74 261.031 595.503 329.764 574.333 392.183C570.401 403.773 564.717 415.735 559.343 427.218H559.334C560.656 423.854 561.707 420.628 562.486 417.541C569.162 391.192 573.433 367.289 575.298 345.833C578.432 309.825 577.069 270.7 563.114 236.781C562.53 235.352 562.167 235.405 562.025 236.94C561.53 242.488 560.612 248.323 559.272 254.444C552.324 286.229 539.267 314.585 520.101 339.512C490.325 378.23 447.55 405.677 401.863 421.994C381.773 429.166 355.326 436.665 331.544 446.378C282.04 466.591 244.154 506.575 227.348 557.449C227.276 557.668 227.283 557.905 227.367 558.119C227.451 558.333 227.608 558.509 227.809 558.618C229.178 559.373 230.684 560.114 232.324 560.84C247.226 567.445 260.454 573.306 275.71 576.485C275.721 576.485 275.724 576.491 275.719 576.503L275.683 576.715C275.66 576.869 275.571 576.934 275.417 576.91C268.051 575.865 260.675 574.838 253.291 573.829C235.698 571.412 220.124 566.144 203.912 559.512C169.726 545.532 138.843 524.54 113.493 498.031C103.583 487.666 94.0172 476.271 84.7971 463.846C47.4416 413.495 28.9541 351.624 32.0885 289.213C35.0045 290.4 38.1152 291.191 41.4208 291.586C41.769 291.627 41.9402 291.825 41.9343 292.179C41.0135 339.361 54.0822 387.03 76.9612 428.033C80.3346 434.071 84.4783 439.755 88.5867 445.413C88.6518 445.504 88.7484 445.567 88.8568 445.59C88.9652 445.613 89.0775 445.594 89.171 445.537C89.2596 445.483 89.3127 445.362 89.3304 445.174C93.3679 410.493 106.782 375.574 124.384 345.78C131.036 334.53 139.099 322.014 148.573 308.231C164.216 285.477 175.856 260.822 183.494 234.266C185.749 226.416 188.128 218.607 190.63 210.839C195.636 195.309 202.586 180.765 211.482 167.207C216.785 159.115 223.47 151.27 230.102 143.789C231.938 141.717 233.939 139.819 236.105 138.096C236.108 138.093 236.111 138.092 236.114 138.092C236.117 138.092 236.121 138.093 236.123 138.096C236.125 138.098 236.127 138.101 236.127 138.105C236.127 138.108 236.125 138.111 236.123 138.113C221.319 156.264 211.358 178.434 205.806 201.091C202.079 216.293 199.892 231.681 197.51 247.122C197.203 249.147 196.253 253.329 194.659 259.668C188.638 283.671 176.641 303.822 164.44 325C162.952 327.595 161.651 330.8 160.022 333.553C159.585 334.279 159.715 334.4 160.411 333.916C170.198 327.022 180.637 321.187 191.728 316.412C209.95 308.55 229.084 304.318 248.66 300.192C258.406 298.144 268.305 296.692 278.357 295.836C289.029 295.552 299.046 294.357 308.408 292.25C361.302 280.359 400.934 235.461 417.818 185.641C428.31 154.697 431.958 122.442 428.107 89.8422C428.094 89.7252 428.051 89.6138 427.982 89.519C427.912 89.4242 427.818 89.3494 427.71 89.3019C427.602 89.2545 427.482 89.236 427.364 89.2485C427.246 89.261 427.132 89.3039 427.035 89.373C414.48 98.4659 398.711 103.061 384.545 106.302C349.217 114.385 314.278 124.107 286.211 148.118C259.746 170.758 242.241 203.455 240.267 238.941C240.249 239.266 240.364 239.322 240.612 239.109C253.722 227.983 267.865 218.371 283.041 210.272C300.377 201.029 318.457 193.202 336.192 184.738C346.791 179.673 358.416 173.963 366.916 165.835C367.689 165.097 367.831 165.2 367.341 166.145C357.92 184.313 344.179 198.833 326.382 210.449C310.852 220.587 293.719 228.856 278.977 237.002C261.581 246.611 245.266 257.797 230.031 270.558C223.869 275.723 215.118 283.727 203.779 294.57C202.946 295.367 201.648 296.27 199.883 297.279C199.487 297.515 199.133 297.618 198.82 297.589C198.502 297.559 198.437 297.412 198.626 297.146C200.314 294.779 201.987 291.822 203.646 288.275C210.712 273.123 215.744 258.298 218.742 243.802C221.564 230.137 224.016 219.368 226.1 211.494C236.114 173.635 259.383 140.433 292.834 119.759C311.498 108.226 331.594 99.9209 353.121 94.8447C361.975 92.761 370.827 90.6538 379.675 88.523C390.096 86.0174 402.085 83.0425 409.805 76.0391C414.935 71.3819 416.927 65.2551 415.782 57.6585C415.44 55.3742 414.944 53.7038 414.294 52.6472C414.129 52.3757 414.185 52.1602 414.463 52.0009L414.799 51.7972ZM194.951 541.769C199.511 523.734 207.896 506.194 218.22 490.744C224.459 481.401 230.12 473.848 235.202 468.087C258.063 442.163 289.496 421.374 322.451 409.696C332.32 406.196 345.557 402.156 362.161 397.575C397.1 387.942 429.692 372.2 457.485 349.145C468.907 339.671 478.566 328.923 487.642 317.014C522.837 270.797 533.524 210.91 512.079 156.379C502.582 132.237 487.728 111.874 467.517 95.2873C467.453 95.2359 467.375 95.2041 467.293 95.1958C467.212 95.1875 467.129 95.203 467.056 95.2404C466.983 95.2779 466.923 95.3357 466.882 95.4069C466.841 95.478 466.822 95.5595 466.826 95.6415C467.086 100.34 467.112 105.127 466.906 110.002C465.799 136.511 460.3 162.692 451.066 187.5C430.365 243.111 386.253 287.301 332.535 310.985C314.854 318.785 295.64 323.646 276.524 326.373C271.654 327.069 261.549 328.616 246.208 331.012C218.007 335.421 192.879 344.001 170.478 361.097C142.854 382.178 127.084 414.858 122.409 448.786C121.146 457.97 120.597 468.073 120.763 479.093C120.816 482.546 120.603 484.626 122.976 487.353C136.694 503.16 152.339 516.775 169.912 528.196C179.448 534.394 186.026 537.687 194.553 541.946C194.59 541.965 194.631 541.975 194.673 541.975C194.714 541.976 194.756 541.968 194.794 541.951C194.832 541.934 194.865 541.909 194.893 541.878C194.92 541.846 194.94 541.809 194.951 541.769Z" fill="#F0F8FA"/>
<path d="M278.357 295.836C277.117 295.523 275.848 295.331 274.55 295.26C274.361 295.248 274.222 295.198 274.134 295.11C274.069 295.051 274.013 294.98 273.965 294.897C273.895 294.761 273.782 294.673 273.629 294.631C269.733 293.658 266.67 294.879 263.252 294.729C252.586 294.268 245.724 294.035 242.666 294.029C230.518 294 216.7 295.325 201.211 298.005C200.981 298.046 200.801 297.969 200.671 297.775C200.559 297.603 200.296 297.438 199.883 297.279C201.648 296.269 202.946 295.366 203.779 294.57C215.118 283.727 223.869 275.723 230.031 270.558C245.266 257.797 261.581 246.611 278.977 237.002C293.719 228.856 310.852 220.587 326.382 210.449C344.179 198.833 357.92 184.313 367.341 166.144C367.831 165.2 367.689 165.097 366.916 165.835C358.416 173.962 346.791 179.673 336.192 184.738C318.457 193.202 300.377 201.029 283.041 210.272C267.865 218.37 253.722 227.983 240.612 239.109C240.364 239.322 240.249 239.265 240.267 238.941C242.241 203.455 259.746 170.757 286.211 148.118C314.278 124.106 349.217 114.385 384.544 106.301C398.711 103.061 414.48 98.4656 427.035 89.3727C427.132 89.3037 427.245 89.2608 427.364 89.2483C427.482 89.2358 427.601 89.2543 427.71 89.3017C427.818 89.3492 427.912 89.424 427.981 89.5188C428.051 89.6136 428.094 89.725 428.107 89.842C431.958 122.442 428.31 154.696 417.818 185.641C400.933 235.461 361.302 280.359 308.408 292.25C299.046 294.357 289.029 295.552 278.357 295.836Z" fill="#30AF2D"/>
<path d="M218.22 490.744C207.896 506.194 199.511 523.734 194.951 541.769C194.94 541.809 194.92 541.846 194.893 541.878C194.865 541.909 194.832 541.934 194.794 541.951C194.756 541.968 194.714 541.976 194.673 541.975C194.631 541.975 194.59 541.965 194.553 541.946C186.026 537.687 179.448 534.394 169.912 528.196C152.339 516.775 136.694 503.16 122.976 487.353C120.603 484.626 120.816 482.546 120.763 479.093C120.597 468.073 121.146 457.97 122.409 448.786C127.084 414.858 142.854 382.178 170.478 361.097C192.879 344.001 218.007 335.421 246.208 331.012C261.549 328.616 271.654 327.069 276.524 326.373C295.64 323.646 314.854 318.785 332.535 310.985C386.253 287.301 430.365 243.111 451.066 187.5C460.3 162.692 465.799 136.511 466.906 110.002C467.112 105.127 467.086 100.34 466.826 95.6415C466.821 95.5595 466.841 95.478 466.882 95.4068C466.923 95.3357 466.983 95.2779 467.056 95.2404C467.129 95.203 467.212 95.1875 467.293 95.1958C467.375 95.2041 467.453 95.2359 467.517 95.2873C487.728 111.874 502.582 132.237 512.079 156.379C533.524 210.91 522.837 270.797 487.642 317.014C478.566 328.923 468.907 339.671 457.485 349.145C429.692 372.2 397.1 387.942 362.161 397.575C345.557 402.156 332.32 406.196 322.451 409.696C289.495 421.374 258.063 442.163 235.202 468.087C230.12 473.848 224.459 481.401 218.22 490.744Z" fill="#30AF2D"/>
</svg>
