<svg width="60" height="60" viewBox="0 0 60 60" fill="none" xmlns="http://www.w3.org/2000/svg">
<path d="M28.3377 37.5C28.3377 34.2783 25.726 31.6667 22.5042 31.6667H15.8375C12.6159 31.6667 10.0042 34.2783 10.0042 37.5V44.1667C10.0042 47.3883 12.6159 50 15.8375 50H22.5042C25.726 50 28.3377 47.3883 28.3377 44.1667V37.5ZM49.9957 37.5C49.9957 34.2783 47.384 31.6667 44.1623 31.6667H37.4957C34.274 31.6667 31.6623 34.2783 31.6623 37.5V44.1667C31.6623 47.3883 34.274 50 37.4957 50H44.1623C47.384 50 49.9957 47.3883 49.9957 44.1667V37.5ZM28.3333 15.8333C28.3333 12.6117 25.7217 10 22.5 10H15.8333C12.6117 10 10 12.6117 10 15.8333V22.5C10 25.7217 12.6117 28.3333 15.8333 28.3333H22.5C25.7217 28.3333 28.3333 25.7217 28.3333 22.5V15.8333ZM49.9917 15.8333C49.9917 12.6117 47.38 10 44.1583 10H37.4917C34.27 10 31.6583 12.6117 31.6583 15.8333V22.5C31.6583 25.7217 34.27 28.3333 37.4917 28.3333H44.1583C47.38 28.3333 49.9917 25.7217 49.9917 22.5V15.8333ZM10.8333 0C4.85023 0 0 4.85023 0 10.8333V49.1667C0 55.1497 4.85023 60 10.8333 60H49.1667C55.1497 60 60 55.1497 60 49.1667V10.8333C60 4.85023 55.1497 0 49.1667 0H10.8333ZM5 10.8333C5 7.61167 7.61167 5 10.8333 5H49.1667C52.3883 5 55 7.61167 55 10.8333V49.1667C55 52.3883 52.3883 55 49.1667 55H10.8333C7.61167 55 5 52.3883 5 49.1667V10.8333Z" fill="#212121"/>
</svg>
