<svg width="60" height="61" viewBox="0 0 60 61" fill="none" xmlns="http://www.w3.org/2000/svg">
<path d="M36.5697 1.55049C34.1054 0.491958 31.3492 0.491958 28.8848 1.55049L22.9107 4.11678L49.0713 14.8966L58.2739 11.1291C57.9033 10.8033 57.4825 10.5338 57.0205 10.3354L36.5697 1.55049ZM60 15.0695L34.7722 25.3976V56.9632C35.3825 56.8312 35.9845 56.6396 36.5697 56.3882L57.0205 47.6032C58.8215 46.8296 60 44.9757 60 42.9165V15.0695ZM30.6813 25.3976V54.3266L25.7054 49.0541C26.7085 46.922 27.2727 44.5174 27.2727 41.973C27.2727 33.1949 20.557 26.079 12.2727 26.079C9.81758 26.079 7.50019 26.7041 5.45455 27.8121V15.07L30.6813 25.3976ZM7.18017 11.1294L32.7267 21.5879L43.4095 17.2145L17.3846 6.49061L8.43415 10.3354C7.97204 10.5339 7.55092 10.8035 7.18017 11.1294ZM12.2727 54.9771C14.9233 54.9771 17.3776 54.0867 19.3838 52.573L26.5082 60.1218C27.3071 60.9682 28.602 60.9682 29.4008 60.1218C30.1996 59.2754 30.1996 57.9033 29.4008 57.0569L22.2765 49.5078C23.7052 47.3821 24.5455 44.7816 24.5455 41.973C24.5455 34.7909 19.0508 28.9688 12.2727 28.9688C5.49469 28.9688 0 34.7909 0 41.973C0 49.155 5.49469 54.9771 12.2727 54.9771ZM12.2727 50.6424C7.75405 50.6424 4.09091 46.7611 4.09091 41.973C4.09091 37.1848 7.75405 33.3035 12.2727 33.3035C16.7914 33.3035 20.4545 37.1848 20.4545 41.973C20.4545 46.7611 16.7914 50.6424 12.2727 50.6424Z" fill="black"/>
</svg>
