<svg width="60" height="68" viewBox="0 0 60 68" fill="none" xmlns="http://www.w3.org/2000/svg">
<path d="M30.0003 15.761C34.1435 15.761 37.5025 12.4021 37.5025 8.2588C37.5025 4.11545 34.1435 0.756592 30.0003 0.756592C25.857 0.756592 22.4981 4.11545 22.4981 8.2588C22.4981 12.4021 25.857 15.761 30.0003 15.761ZM10.4938 8.01883C6.68221 6.40088 2.26518 8.16674 0.619431 11.9664C-1.03199 15.7792 0.732665 20.1932 4.55739 21.8167L14.6394 26.0962C15.871 26.619 16.6708 27.8275 16.6708 29.1656V39.3003L10.4057 57.4956C9.05678 61.4131 11.1391 65.6827 15.0567 67.0314C18.9743 68.3805 23.2437 66.2982 24.5927 62.3804L29.212 48.9648C29.4701 48.2152 30.5304 48.2152 30.7885 48.9648L35.4082 62.381C36.7569 66.2989 41.0265 68.3811 44.944 67.0321C48.8618 65.6833 50.9441 61.4137 49.595 57.4963L43.3452 39.3013V29.1586C43.3452 27.8205 44.1451 26.6121 45.3768 26.0893L55.4424 21.8167C59.2672 20.1932 61.0321 15.7792 59.3806 11.9664C57.7347 8.16674 53.3178 6.40088 49.506 8.01883L44.1511 10.2918C43.0151 10.774 42.2229 11.7017 41.8344 12.729C40.0272 17.5115 35.4069 20.9057 30.0003 20.9057C24.5933 20.9057 19.9731 17.5115 18.1657 12.7291C17.7774 11.7018 16.985 10.7742 15.8491 10.292L10.4938 8.01883Z" fill="#212121"/>
</svg>
