<svg width="60" height="79" viewBox="0 0 60 79" fill="none" xmlns="http://www.w3.org/2000/svg">
<path d="M23.0673 51.6519C23.0561 51.6249 23.0452 51.5983 23.0339 51.5713C22.5251 51.4318 22.0219 51.2773 21.5255 51.1085C21.5136 51.1044 21.5017 51.1003 21.4898 51.0961C19.7193 50.4909 18.0341 49.7015 16.4569 48.7512C8.83386 44.1577 3.73546 35.7998 3.73546 26.2508C3.73546 11.7529 15.4884 0 29.9863 0C43.5355 0 54.6872 10.2652 56.0886 23.4427C56.2529 24.9873 54.9778 26.2508 53.4245 26.2508C51.8712 26.2508 50.6322 24.9846 50.4229 23.4454C49.0541 13.3813 40.4259 5.62518 29.9863 5.62518C18.595 5.62518 9.36064 14.8596 9.36064 26.2508C9.36064 35.238 15.1086 42.8826 23.1288 45.7091C24.2959 43.0829 26.9269 41.2513 29.9863 41.2513C34.1283 41.2513 37.4865 44.6092 37.4865 48.7512C37.4865 52.8936 34.1287 56.2518 29.9863 56.2518C26.8722 56.2518 24.2014 54.3539 23.0673 51.6519ZM19.222 56.2619C14.7575 54.6602 10.7535 52.091 7.46349 48.8063C3.26264 49.2874 0 52.8553 0 57.1848V60.6349C0 62.78 0.66902 64.8722 1.91391 66.6194C7.69719 74.7358 17.1586 78.7566 29.9878 78.7566C42.8139 78.7566 52.2804 74.7376 58.0777 66.625C59.328 64.8756 60 62.7792 60 60.6293V57.1848C60 52.5272 56.2244 48.7512 51.5664 48.7512H43.1117C43.1117 56.0002 37.2353 61.877 29.9863 61.877C25.5244 61.877 21.5912 59.6517 19.222 56.2619ZM44.9868 26.2508C44.9868 21.6338 42.901 17.504 39.62 14.7523C37.0133 12.5667 33.6524 11.2504 29.9863 11.2504C21.7018 11.2504 14.9858 17.9663 14.9858 26.2508C14.9858 28.5352 15.4968 30.702 16.4115 32.642C17.5646 35.0869 19.3588 37.1701 21.5771 38.6742C23.8522 36.7733 26.7829 35.6261 29.9863 35.6261C33.1863 35.6261 36.1185 36.771 38.3963 38.6739C42.3733 35.9764 44.9868 31.4187 44.9868 26.2508Z" fill="#212121"/>
</svg>
