<svg width="60" height="61" viewBox="0 0 60 61" fill="none" xmlns="http://www.w3.org/2000/svg">
<path d="M30 60.443C46.5684 60.443 60 47.0114 60 30.443C60 13.8744 46.5684 0.442993 30 0.442993C13.4314 0.442993 0 13.8744 0 30.443C0 47.0114 13.4314 60.443 30 60.443ZM25.5 30.443C25.5 29.2004 26.5074 28.193 27.75 28.193H30.3711C33.6981 28.193 36 25.8029 36 23.318C36 20.8332 33.6981 18.443 30.3711 18.443C28.4724 18.443 26.9295 19.1293 25.8288 19.8537C25.2807 20.2144 24.8598 20.5737 24.5829 20.835C24.4452 20.965 24.3456 21.0686 24.2859 21.1329C24.2562 21.165 24.2364 21.187 24.2274 21.1975L24.2226 21.2028C23.4277 22.1493 22.0165 22.2776 21.0637 21.4874C20.1072 20.6941 19.9748 19.2756 20.7681 18.3192L20.7706 18.3162L20.7733 18.3129L20.7796 18.3054L20.7956 18.2865L20.8414 18.2335C20.8779 18.1918 20.9266 18.1373 20.9873 18.072C21.1084 17.9415 21.2779 17.7667 21.494 17.5627C21.9247 17.1561 22.5497 16.6247 23.3549 16.0948C24.9606 15.038 27.3534 13.943 30.3711 13.943C35.7468 13.943 40.5 17.9328 40.5 23.318C40.5 26.2433 39.0975 28.757 36.9543 30.443C39.0975 32.129 40.5 34.6427 40.5 37.568C40.5 42.9533 35.7468 46.943 30.3711 46.943C27.3534 46.943 24.9606 45.848 23.3549 44.7911C22.5497 44.2613 21.9247 43.73 21.494 43.3232C21.2779 43.1192 21.1084 42.9446 20.9873 42.8141C20.9266 42.7487 20.8779 42.6941 20.8414 42.6524L20.7956 42.5996L20.7796 42.5807L20.7733 42.5729L20.7706 42.5699L20.7681 42.5669C19.9748 41.6102 20.1072 40.1918 21.0637 39.3986C22.0165 38.6084 23.4277 38.7368 24.2226 39.683L24.2247 39.6857L24.2274 39.6884C24.2364 39.6989 24.2562 39.7211 24.2859 39.7532C24.3456 39.8174 24.4452 39.9209 24.5829 40.0511C24.8598 40.3124 25.2807 40.6715 25.8288 41.0324C26.9295 41.7566 28.4724 42.443 30.3711 42.443C33.6981 42.443 36 40.0529 36 37.568C36 35.0831 33.6981 32.693 30.3711 32.693H27.75C26.5074 32.693 25.5 31.6856 25.5 30.443Z" fill="#212121"/>
</svg>
