<svg width="60" height="61" viewBox="0 0 60 61" fill="none" xmlns="http://www.w3.org/2000/svg">
<path d="M30 60.443C46.5684 60.443 60 47.0114 60 30.443C60 13.8744 46.5684 0.442993 30 0.442993C13.4314 0.442993 0 13.8744 0 30.443C0 47.0114 13.4314 60.443 30 60.443ZM34.5006 16.193V43.193C34.5006 44.4356 33.4932 45.443 32.2506 45.443C31.008 45.443 30.0006 44.4356 30.0006 43.193V24.7439C28.356 26.5064 26.2965 28.0496 23.9621 28.8275C22.7833 29.2205 21.509 28.5833 21.1161 27.4046C20.7231 26.2256 21.3602 24.9515 22.5391 24.5585C24.2541 23.9868 25.9851 22.629 27.408 20.8711C28.8327 19.1112 29.7573 17.1866 30.0444 15.7518C30.2712 14.6175 31.3212 13.84 32.4723 13.954C33.6234 14.068 34.5006 15.0363 34.5006 16.193Z" fill="#212121"/>
</svg>
